<svg width="40" height="40" viewBox="0 0 40 40" fill="none" xmlns="http://www.w3.org/2000/svg">
<path d="M36.3427 16.7358H35.0002V16.6666H20.0002V23.3333H29.4193C28.0452 27.2141 24.3527 30 20.0002 30C14.4777 30 10.0002 25.5225 10.0002 20C10.0002 14.4775 14.4777 9.99998 20.0002 9.99998C22.5493 9.99998 24.8685 10.9616 26.6343 12.5325L31.3485 7.81831C28.3718 5.04415 24.3902 3.33331 20.0002 3.33331C10.796 3.33331 3.3335 10.7958 3.3335 20C3.3335 29.2041 10.796 36.6666 20.0002 36.6666C29.2043 36.6666 36.6668 29.2041 36.6668 20C36.6668 18.8825 36.5518 17.7916 36.3427 16.7358Z" fill="#FFC107"/>
<path d="M5.25488 12.2425L10.7307 16.2583C12.2124 12.59 15.8007 9.99998 19.9999 9.99998C22.549 9.99998 24.8682 10.9616 26.6341 12.5325L31.3482 7.81831C28.3715 5.04415 24.3899 3.33331 19.9999 3.33331C13.5982 3.33331 8.04655 6.94748 5.25488 12.2425Z" fill="#FF3D00"/>
<path d="M20.0001 36.6666C24.3051 36.6666 28.2168 35.0191 31.1743 32.34L26.0159 27.975C24.2867 29.2908 22.1731 30.0023 20.0001 30C15.6651 30 11.9843 27.2358 10.5976 23.3783L5.1626 27.5658C7.92093 32.9633 13.5226 36.6666 20.0001 36.6666Z" fill="#4CAF50"/>
<path d="M36.3425 16.7359H35V16.6667H20V23.3334H29.4192C28.7618 25.1804 27.5778 26.7943 26.0133 27.9759L26.0158 27.9742L31.1742 32.3392C30.8092 32.6709 36.6667 28.3334 36.6667 20C36.6667 18.8825 36.5517 17.7917 36.3425 16.7359Z" fill="#1976D2"/>
</svg>
